<svg width="39" height="39" viewBox="0 0 39 39" fill="none" xmlns="http://www.w3.org/2000/svg">
<rect width="39" height="39" rx="4.58824" fill="#4DA67A"/>
<path d="M28.7998 24.4776C28.1737 23.9525 24.5017 21.6272 23.8914 21.734C23.6048 21.7848 23.3856 22.0291 22.7989 22.729C22.5276 23.0735 22.2297 23.3961 21.9078 23.6939C21.3181 23.5514 20.7473 23.3398 20.2072 23.0635C18.0891 22.0323 16.378 20.3207 15.3474 18.2023C15.0711 17.6622 14.8595 17.0914 14.717 16.5017C15.0148 16.1798 15.3375 15.8819 15.682 15.6106C16.3811 15.0239 16.6261 14.8061 16.677 14.5181C16.7837 13.9064 14.4563 10.2358 13.9333 9.60966C13.7141 9.35034 13.515 9.17627 13.26 9.17627C12.5207 9.17627 9.17676 13.3111 9.17676 13.8469C9.17676 13.8906 9.24839 18.1952 14.6848 23.7261C20.2158 29.1625 24.5203 29.2342 24.564 29.2342C25.0999 29.2342 29.2347 25.8902 29.2347 25.151C29.2347 24.8959 29.0606 24.6968 28.7998 24.4776Z" fill="white"/>
</svg>
