<svg width="42" height="35" viewBox="0 0 42 35" fill="none" xmlns="http://www.w3.org/2000/svg">
<g clip-path="url(#clip0_2561_3107)">
<path d="M40.6818 -0.224609H27.3033C26.5757 -0.224609 25.985 0.365195 25.985 1.09363V3.75637C25.985 4.48398 26.5757 5.07461 27.3033 5.07461H32.9544L21.3913 16.6369L16.4891 11.7347C15.4539 10.7003 13.7763 10.7003 12.7411 11.7347L0.386367 24.0911C-0.128789 24.6054 -0.128789 25.4405 0.386367 25.9548L2.26898 27.8383C2.78332 28.3526 3.6184 28.3526 4.13273 27.8383L14.6155 17.3555L19.5169 22.2577C20.552 23.2932 22.2298 23.2936 23.2649 22.2577L36.7008 8.8218V14.4729C36.7008 15.2005 37.2906 15.7912 38.019 15.7912H40.6818C41.4102 15.7912 42 15.2005 42 14.4729V1.09363C42 0.365195 41.4102 -0.224609 40.6818 -0.224609Z" fill="#4DA67A"/>
</g>
<defs>
<clipPath id="clip0_2561_3107">
<rect width="42" height="35" fill="white"/>
</clipPath>
</defs>
</svg>
