<svg width="19" height="19" viewBox="0 0 19 19" fill="none" xmlns="http://www.w3.org/2000/svg">
<path fill-rule="evenodd" clip-rule="evenodd" d="M1 8.17321C1 6.01238 1 4.93197 1.41175 4.10665C1.77394 3.38067 2.35187 2.79043 3.0627 2.42052C3.87082 2 4.92869 2 7.04444 2H11.9556C14.0713 2 15.1292 2 15.9373 2.42052C16.6481 2.79043 17.226 3.38067 17.5882 4.10665C18 4.93197 18 6.01238 18 8.17321V9.33068C18 11.4915 18 12.5719 17.5882 13.3973C17.226 14.1232 16.6481 14.7134 15.9373 15.0833C15.1292 15.5039 14.0713 15.5039 11.9556 15.5039H5.16898C4.9185 15.5039 4.67827 15.6056 4.50116 15.7864L2.61227 17.7155C2.0173 18.3232 1 17.8928 1 17.0335V15.5039V10.6811V8.17321ZM6.66667 5.85825C6.14507 5.85825 5.72222 6.29011 5.72222 6.82282C5.72222 7.35553 6.14507 7.78738 6.66667 7.78738H12.3333C12.8549 7.78738 13.2778 7.35553 13.2778 6.82282C13.2778 6.29011 12.8549 5.85825 12.3333 5.85825H6.66667ZM6.66667 9.71651C6.14507 9.71651 5.72222 10.1483 5.72222 10.6811C5.72222 11.2138 6.14507 11.6456 6.66667 11.6456H9.5C10.0216 11.6456 10.4444 11.2138 10.4444 10.6811C10.4444 10.1483 10.0216 9.71651 9.5 9.71651H6.66667Z" fill="#4DA67A"/>
</svg>
