<svg width="40" height="40" viewBox="0 0 40 40" fill="none" xmlns="http://www.w3.org/2000/svg">
<path d="M36.6669 33.1332C36.4387 33.4767 36.129 33.7584 35.7655 33.9533C35.402 34.1481 34.996 34.25 34.5836 34.2498H34.3002L31.5669 33.9165L30.5169 36.4332C30.3354 36.8564 30.0397 37.2209 29.663 37.4857C29.2862 37.7506 28.8433 37.9056 28.3836 37.9332H28.1669C27.7307 37.931 27.3031 37.8125 26.928 37.5898C26.553 37.3672 26.2442 37.0484 26.0336 36.6665L23.0669 31.5165C23.6101 31.2139 24.1092 30.8381 24.5502 30.3998L25.6669 29.2832H26.9169C28.3523 29.2855 29.7472 28.8077 30.8797 27.9258C32.0123 27.044 32.8173 25.8087 33.1669 24.4165L36.6669 30.5332C36.9072 30.9242 37.0343 31.3742 37.0343 31.8332C37.0343 32.2921 36.9072 32.7421 36.6669 33.1332Z" fill="#4DA67A"/>
<path d="M17.4668 31.7832L14.6335 36.6665C14.4172 37.0411 14.1063 37.3522 13.7319 37.5687C13.3574 37.7851 12.9326 37.8993 12.5001 37.8998H12.3501C11.8904 37.8722 11.4475 37.7173 11.0707 37.4524C10.694 37.1875 10.3983 36.8231 10.2168 36.3998L9.13348 33.8665L6.43348 34.2165C5.97644 34.2712 5.5132 34.1978 5.09547 34.0045C4.67773 33.8112 4.32194 33.5056 4.06781 33.1218C3.81368 32.738 3.67122 32.2912 3.65633 31.8311C3.64144 31.3711 3.7547 30.9159 3.98348 30.5165L7.08348 25.1665C7.54652 26.3826 8.36834 27.4291 9.43993 28.1673C10.5115 28.9056 11.7822 29.3005 13.0835 29.2998H14.3335L15.4501 30.4165C16.031 30.9942 16.715 31.4577 17.4668 31.7832Z" fill="#4DA67A"/>
<path d="M32.7001 13.1498L31.3168 11.7831C31.029 11.4758 30.8682 11.0709 30.8668 10.6498V8.98314C30.8624 7.93688 30.4448 6.93473 29.705 6.19491C28.9652 5.45509 27.963 5.03752 26.9168 5.03313H25.2501C24.8268 5.02717 24.4216 4.86033 24.1168 4.56647L22.7335 3.18313C21.9833 2.46787 20.9866 2.06885 19.9501 2.06885C18.9136 2.06885 17.9169 2.46787 17.1668 3.18313L15.7835 4.56647C15.4787 4.86033 15.0735 5.02717 14.6501 5.03313H12.9835C11.9475 5.06366 10.965 5.50012 10.2479 6.24839C9.53083 6.99667 9.13656 7.99681 9.15012 9.03314V10.6998C9.14416 11.1231 8.97732 11.5283 8.68346 11.8331L7.30012 13.1998C6.92974 13.5643 6.63559 13.9988 6.4348 14.4781C6.23402 14.9574 6.13062 15.4718 6.13062 15.9915C6.13062 16.5111 6.23402 17.0256 6.4348 17.5048C6.63559 17.9841 6.92974 18.4187 7.30012 18.7831L8.68346 20.1665C8.97344 20.4671 9.13998 20.8656 9.15012 21.2831V22.9498C9.15012 23.993 9.56453 24.9934 10.3022 25.7311C11.0398 26.4687 12.0403 26.8831 13.0835 26.8831H14.7501C15.1735 26.8891 15.5787 27.0559 15.8835 27.3498L17.2668 28.7331C18.0068 29.468 19.0073 29.8804 20.0501 29.8804C21.093 29.8804 22.0935 29.468 22.8335 28.7331L24.2168 27.3498C24.5216 27.0559 24.9268 26.8891 25.3501 26.8831H27.0168C28.0615 26.8831 29.0637 26.4693 29.804 25.7321C30.5443 24.9949 30.9624 23.9945 30.9668 22.9498V21.2831C30.9724 20.8678 31.1329 20.4696 31.4168 20.1665L32.8001 18.7831C33.1697 18.4101 33.4607 17.9667 33.6562 17.4794C33.8517 16.992 33.9476 16.4704 33.9383 15.9454C33.929 15.4203 33.8146 14.9025 33.6019 14.4224C33.3893 13.9422 33.0827 13.5095 32.7001 13.1498ZM25.6835 14.8165L20.1168 20.3331C19.8824 20.5672 19.5647 20.6987 19.2335 20.6987C18.9022 20.6987 18.5845 20.5672 18.3501 20.3331L15.5668 17.5498C15.3327 17.3154 15.2012 16.9977 15.2012 16.6665C15.2012 16.3352 15.3327 16.0175 15.5668 15.7831C15.8061 15.552 16.1258 15.4228 16.4585 15.4228C16.7912 15.4228 17.1108 15.552 17.3501 15.7831L19.2335 17.6831L23.9001 12.9998C24.1394 12.7686 24.4591 12.6394 24.7918 12.6394C25.1245 12.6394 25.4442 12.7686 25.6835 12.9998C25.9175 13.2342 26.049 13.5519 26.049 13.8831C26.049 14.2144 25.9175 14.5321 25.6835 14.7665V14.8165Z" fill="#4DA67A"/>
</svg>
