<svg width="40" height="40" viewBox="0 0 40 40" fill="none" xmlns="http://www.w3.org/2000/svg">
<path d="M6.66675 11.6668C6.66675 7.06446 10.3977 3.3335 15.0001 3.3335C19.6024 3.3335 23.3334 7.06446 23.3334 11.6668C23.3334 16.2692 19.6024 20.0002 15.0001 20.0002C10.3977 20.0002 6.66675 16.2692 6.66675 11.6668Z" fill="#4DA67A"/>
<path d="M24.4179 18.5542C23.9902 19.138 24.2764 20.0002 25 20.0002C29.6025 20.0002 33.3334 16.2692 33.3334 11.6668C33.3334 7.06446 29.6025 3.3335 25 3.3335C24.2764 3.3335 23.9902 4.19573 24.4179 4.77951C25.8319 6.70973 26.6667 9.09078 26.6667 11.6668C26.6667 14.2429 25.8319 16.6239 24.4179 18.5542Z" fill="#4DA67A"/>
<path d="M33.3335 36.6668C32.413 36.6668 31.6668 35.9207 31.6668 35.0002V31.6668C31.6668 29.1673 30.8431 26.7145 29.3678 24.717C28.9691 24.1772 29.329 23.3335 30.0001 23.3335C32.2103 23.3335 34.33 24.2115 35.8928 25.7743C37.4555 27.337 38.3335 29.4567 38.3335 31.6668V35.0002C38.3335 35.9207 37.5873 36.6668 36.6668 36.6668H33.3335Z" fill="#4DA67A"/>
<path d="M4.10753 25.7743C5.67033 24.2115 7.78995 23.3335 10.0001 23.3335H20.0001C22.2102 23.3335 24.3299 24.2115 25.8926 25.7743C27.4554 27.337 28.3334 29.4567 28.3334 31.6668V35.0002C28.3334 35.9207 27.5872 36.6668 26.6667 36.6668H3.33341C2.41295 36.6668 1.66675 35.9207 1.66675 35.0002V31.6668C1.66675 29.4567 2.54471 27.337 4.10753 25.7743Z" fill="#4DA67A"/>
</svg>
