<svg width="23" height="23" viewBox="0 0 23 23" fill="none" xmlns="http://www.w3.org/2000/svg">
<path d="M18.3115 4.6875H17.374V2.8125C17.374 2.56386 17.2753 2.3254 17.0994 2.14959C16.9236 1.97377 16.6852 1.875 16.4365 1.875C16.1879 1.875 15.9494 1.97377 15.7736 2.14959C15.5978 2.3254 15.499 2.56386 15.499 2.8125V4.6875H7.99902V2.8125C7.99902 2.56386 7.90025 2.3254 7.72444 2.14959C7.54862 1.97377 7.31016 1.875 7.06152 1.875C6.81288 1.875 6.57443 1.97377 6.39861 2.14959C6.2228 2.3254 6.12402 2.56386 6.12402 2.8125V4.6875H5.18652C4.4406 4.6875 3.72523 4.98382 3.19779 5.51126C2.67034 6.03871 2.37402 6.75408 2.37402 7.5V8.4375H21.124V7.5C21.124 6.75408 20.8277 6.03871 20.3003 5.51126C19.7728 4.98382 19.0574 4.6875 18.3115 4.6875Z" fill="#4DA67A"/>
<path d="M2.37402 17.8125C2.37402 18.5584 2.67034 19.2738 3.19779 19.8012C3.72523 20.3287 4.4406 20.625 5.18652 20.625H18.3115C19.0574 20.625 19.7728 20.3287 20.3003 19.8012C20.8277 19.2738 21.124 18.5584 21.124 17.8125V10.3125H2.37402V17.8125Z" fill="#4DA67A"/>
</svg>
