<svg width="19" height="19" viewBox="0 0 19 19" fill="none" xmlns="http://www.w3.org/2000/svg">
<g clip-path="url(#clip0_2485_386)">
<path d="M17.4683 5.86532L11.3455 0.245664C11.1444 0.0847949 10.9041 0 10.6508 0C10.3976 0 10.1568 0.0847949 9.95567 0.245664L3.83355 5.84855C3.35373 6.23174 3.27416 6.93162 3.65958 7.41286C4.04155 7.8912 4.74229 7.97265 5.22389 7.58683L10.6508 2.57765L16.079 7.60416C16.527 7.96493 17.278 7.88712 17.6422 7.42911C18.0271 6.94988 17.9486 6.24892 17.4683 5.86532Z" fill="#4DA67A"/>
<path d="M16.2174 0.00195312H13.9911C13.6834 0.00195312 13.4344 0.250883 13.4344 0.558557V0.646357L16.774 3.72651V0.558557C16.774 0.250883 16.5251 0.00195312 16.2174 0.00195312Z" fill="#4DA67A"/>
<path d="M1.74509 8.94434H0.557702C0.250065 8.94434 0.00109863 9.19327 0.00109863 9.50094V18.4435C0.00109863 18.7512 0.250028 19.0001 0.557702 19.0001H1.74509C2.66585 19.0001 3.41486 18.2511 3.41486 17.3303V10.6141C3.41486 9.69335 2.66589 8.94434 1.74509 8.94434Z" fill="#4DA67A"/>
<path d="M18.5435 10.2698C18.087 9.93589 17.4525 10.0027 17.074 10.4146L14.0684 14.1549C13.8569 14.3775 13.4562 14.5111 13.2447 14.5111H8.42456C8.11284 14.5111 7.86795 14.2662 7.86795 13.9545C7.86795 13.6427 8.1128 13.3979 8.42456 13.3979C10.9181 13.3979 10.1055 13.3979 12.8773 13.3979C13.4896 13.3979 13.9905 12.8969 13.9905 12.2847C13.9905 11.6724 13.4895 11.1715 12.8773 11.1715C10.2633 11.1715 12.7567 11.1715 9.96077 11.1715C9.68338 11.1715 9.54504 10.9956 9.32624 10.8041C8.99229 10.5036 8.61381 10.281 8.2242 10.1251C7.01792 9.63252 5.62406 9.78159 4.52844 10.5435C4.52844 12.5702 4.52844 15.5901 4.52844 17.8877H12.8773C13.9238 17.8877 14.9256 17.3868 15.549 16.5519L18.7773 11.8394C19.1446 11.3496 19.0444 10.6372 18.5435 10.2698Z" fill="#4DA67A"/>
<path d="M10.65 4.09375L5.64172 8.71676V8.8678C6.00914 8.78315 6.38365 8.72585 6.76684 8.72585C7.41533 8.72585 8.04689 8.8498 8.6448 9.09383C8.7627 9.141 8.86842 9.20772 8.98123 9.26323V8.38779C8.98123 8.08015 9.23016 7.83118 9.53784 7.83118H11.7642C12.0718 7.83118 12.3208 8.08011 12.3208 8.38779V10.0576H12.8775C13.7705 10.0576 14.5423 10.5859 14.8967 11.3463L15.6604 10.396V8.73001L10.65 4.09375Z" fill="#4DA67A"/>
<path d="M10.0946 8.94434V9.99705L10.1615 10.0575H11.2078V8.94434H10.0946Z" fill="#4DA67A"/>
</g>
<defs>
<clipPath id="clip0_2485_386">
<rect width="19" height="19" fill="white"/>
</clipPath>
</defs>
</svg>
