<svg width="19" height="19" viewBox="0 0 19 19" fill="none" xmlns="http://www.w3.org/2000/svg">
<g clip-path="url(#clip0_2493_261)">
<path d="M6.33295 6.33245C9.95759 6.33245 12.666 4.89957 12.666 3.61834C12.666 2.33724 9.95753 0.904297 6.33295 0.904297C2.70837 0.904297 0 2.33724 0 3.61834C0 4.89957 2.70831 6.33245 6.33295 6.33245Z" fill="#4DA67A"/>
<path d="M6.33295 17.1898C6.86199 17.1898 7.37119 17.159 7.85553 17.103C7.44726 16.5783 7.10962 15.996 6.85669 15.3707C6.68289 15.3766 6.50849 15.3806 6.33289 15.3806C4.26178 15.3806 2.3004 14.9702 0.810214 14.2251C0.516797 14.0784 0.246786 13.9208 0 13.7539V14.4757C0 15.7568 2.70831 17.1898 6.33295 17.1898Z" fill="#4DA67A"/>
<path d="M6.33301 13.5706C6.35159 13.5706 6.36987 13.5703 6.38839 13.5703C6.35129 13.2737 6.33193 12.9717 6.33193 12.6652C6.33193 12.3589 6.35123 12.0571 6.38839 11.7607C6.36987 11.7607 6.35153 11.7614 6.33301 11.7614C4.2619 11.7614 2.30058 11.351 0.810335 10.6059C0.516857 10.4592 0.246786 10.3016 0 10.1348V10.8565C6.03242e-05 12.1377 2.70837 13.5706 6.33301 13.5706Z" fill="#4DA67A"/>
<path d="M6.33301 9.95145C6.51254 9.95145 6.68965 9.94783 6.86453 9.94095C7.1454 9.25187 7.52924 8.61539 7.99724 8.05094C7.4554 8.11066 6.89855 8.14233 6.33301 8.14233C4.2619 8.14233 2.30058 7.73194 0.810335 6.98682C0.516858 6.84005 0.246786 6.68248 0 6.51562V7.23746C6.03242e-05 8.51863 2.70837 9.95145 6.33301 9.95145Z" fill="#4DA67A"/>
<path d="M9.04749 9.66637C8.65599 10.2549 8.37626 10.9239 8.23866 11.6427C8.17514 11.9741 8.1416 12.3159 8.1416 12.6655C8.1416 12.9283 8.16079 13.1868 8.19704 13.4397C8.28614 14.0611 8.4808 14.6487 8.76228 15.1839C9.05762 15.7456 9.44834 16.2496 9.91302 16.674C10.8787 17.556 12.163 18.0947 13.5708 18.0947C16.5644 18.0947 19 15.6592 19 12.6655C19 9.6718 16.5644 7.23633 13.5708 7.23633C13.2614 7.23633 12.958 7.26275 12.6625 7.3127C11.1576 7.56721 9.86132 8.44305 9.04749 9.66637Z" fill="#4DA67A"/>
</g>
<defs>
<clipPath id="clip0_2493_261">
<rect width="19" height="19" fill="white"/>
</clipPath>
</defs>
</svg>
