<svg width="22" height="22" viewBox="0 0 22 22" fill="none" xmlns="http://www.w3.org/2000/svg">
<g clip-path="url(#clip0_2485_417)">
<path fill-rule="evenodd" clip-rule="evenodd" d="M3.30591 8.46182V16.7563C3.30591 17.942 4.27606 18.9122 5.46178 18.9122H8.22274V11.7123C8.22274 11.1545 8.67906 10.6982 9.23684 10.6982H11.388C11.7763 10.6982 12.1153 10.9193 12.2856 11.2418C13.3802 10.3732 14.7648 9.85418 16.2708 9.85418C16.6278 9.85418 16.9778 9.88379 17.3189 9.93986V8.46182L18.2325 9.1256C18.9067 9.6142 19.8494 9.46368 20.338 8.78942C20.8266 8.11519 20.6761 7.1725 20.0018 6.6839L11.2232 0.305881C10.708 -0.0847914 9.97835 -0.11212 9.42771 0.286888L0.622982 6.6839C-0.0512407 7.1725 -0.20176 8.11515 0.286794 8.78942C0.775392 9.46364 1.71804 9.61416 2.39231 9.1256L3.30591 8.46182ZM16.2707 10.5416C19.4349 10.5416 21.9999 13.1067 21.9999 16.2708C21.9999 19.4349 19.4349 22 16.2707 22C13.1066 22 10.5416 19.435 10.5416 16.2708C10.5416 13.1067 13.1066 10.5416 16.2707 10.5416ZM15.9668 13.8528C15.4913 13.9485 15.0428 14.2733 15.0686 14.8055C15.0991 15.4341 15.8656 15.6165 16.3656 15.6985C16.8616 15.78 17.3747 15.9118 17.8084 16.1736C18.3636 16.5088 18.6983 16.9894 18.777 17.6374C18.8575 18.2997 18.6013 18.8843 18.0713 19.2865C17.7454 19.5337 17.3453 19.6901 16.9462 19.7703L16.8294 19.7937V20.1423C16.8294 20.4509 16.5792 20.7012 16.2705 20.7012C15.9619 20.7012 15.7116 20.451 15.7116 20.1423V19.7832L15.5988 19.7572C15.2839 19.6849 14.9797 19.5608 14.7105 19.3815C14.233 19.0635 13.9048 18.6075 13.7663 18.0497C13.7308 17.9065 13.7533 17.7569 13.8291 17.6303C13.9059 17.5021 14.0294 17.4108 14.1746 17.375C14.3181 17.3398 14.4679 17.3624 14.5946 17.4386C14.7224 17.5153 14.8134 17.6385 14.8493 17.7833C15.0362 18.5382 15.868 18.7863 16.5591 18.7024C17.0169 18.6468 17.6895 18.4233 17.676 17.8566C17.6582 17.1045 16.7812 16.8966 16.1866 16.799C15.71 16.7208 15.2147 16.5815 14.807 16.3153C14.2807 15.9718 13.9858 15.4893 13.9552 14.858C13.9341 14.4249 14.0477 14.0088 14.2995 13.6544C14.6102 13.217 15.0885 12.9284 15.6029 12.7946L15.7117 12.7663V12.3993C15.7117 12.0907 15.962 11.8405 16.2706 11.8405C16.5792 11.8405 16.8295 12.0907 16.8295 12.3993V12.7578L16.9393 12.7855C17.6987 12.9773 18.2834 13.4728 18.587 14.196C18.7047 14.4766 18.5685 14.8097 18.2879 14.9275C18.0072 15.0452 17.6743 14.9089 17.5565 14.6284C17.2907 13.9952 16.6194 13.7214 15.9668 13.8528Z" fill="#4DA67A"/>
</g>
<defs>
<clipPath id="clip0_2485_417">
<rect width="22" height="22" fill="white"/>
</clipPath>
</defs>
</svg>
