<svg width="21" height="19" viewBox="0 0 21 19" fill="none" xmlns="http://www.w3.org/2000/svg">
<path fill-rule="evenodd" clip-rule="evenodd" d="M15.6773 0.828125C17.0183 0.828125 18.3083 1.35812 19.2573 2.30912C20.2073 3.25812 20.7383 4.53813 20.7383 5.87813V13.7781C20.7383 16.5681 18.4683 18.8281 15.6773 18.8281H5.79828C3.00728 18.8281 0.738281 16.5681 0.738281 13.7781V5.87813C0.738281 3.08813 2.99728 0.828125 5.79828 0.828125H15.6773ZM17.2663 7.36845L17.3463 7.28845C17.5853 6.99845 17.5853 6.57845 17.3353 6.28845C17.1963 6.13945 17.0053 6.04845 16.8063 6.02845C16.5963 6.01745 16.3963 6.08845 16.2453 6.22845L11.7363 9.82845C11.1563 10.3095 10.3253 10.3095 9.73626 9.82845L5.23626 6.22845C4.92526 5.99845 4.49526 6.02845 4.23626 6.29845C3.96626 6.56845 3.93626 6.99845 4.16526 7.29845L4.29626 7.42845L8.84626 10.9785C9.40626 11.4185 10.0853 11.6585 10.7963 11.6585C11.5053 11.6585 12.1963 11.4185 12.7553 10.9785L17.2663 7.36845Z" fill="#4DA67A"/>
</svg>
