<svg width="22" height="21" viewBox="0 0 22 21" fill="none" xmlns="http://www.w3.org/2000/svg">
<path d="M6.98311 12.3691H5.56785C4.80221 12.3691 4.17578 12.9956 4.17578 13.7612V19.6079C4.17578 20.3813 4.80221 20.9999 5.56785 20.9999H6.98311V12.3691Z" fill="#4DA67A"/>
<path d="M17.4009 14.9057L16.1171 19.5305C15.8774 20.3967 15.0963 20.9999 14.1914 20.9999H8.14368V12.3691L10.6958 8.75745C10.9665 8.3785 11.4073 8.14648 11.8791 8.14648C12.6988 8.14648 13.3253 8.81932 13.3253 9.59269C13.3253 9.72416 13.3098 9.85563 13.2711 9.9871L12.5983 12.3691H15.4752C16.7977 12.3691 17.7567 13.6297 17.4009 14.9057Z" fill="#4DA67A"/>
<path d="M3.15693 3.4672L3.73773 4.6435C3.79264 4.75409 3.89782 4.83143 4.02079 4.84921L5.31927 5.03792C5.62708 5.08277 5.75004 5.46095 5.52731 5.67827L4.58767 6.59394C4.4995 6.68055 4.45851 6.80429 4.47939 6.92649L4.70135 8.21956C4.75394 8.52659 4.43222 8.76015 4.15613 8.61553L2.99452 8.00534C2.88548 7.94811 2.75478 7.94811 2.64496 8.00534L1.48336 8.61553C1.20804 8.76015 0.885544 8.52659 0.938133 8.21956L1.16009 6.92649C1.18097 6.80429 1.14076 6.68055 1.05182 6.59394L0.113721 5.67827C-0.109009 5.46095 0.0139562 5.08277 0.321757 5.03792L1.62025 4.84921C1.74244 4.83143 1.84839 4.75409 1.9033 4.6435L2.4841 3.4672C2.62176 3.18802 3.01927 3.18802 3.15693 3.4672Z" fill="#4DA67A"/>
<path d="M11.1636 0.373452L11.7444 1.54975C11.7994 1.66034 11.9045 1.73768 12.0275 1.75546L13.326 1.94417C13.6338 1.98902 13.7568 2.3672 13.534 2.58452L12.5944 3.50019C12.5062 3.5868 12.4652 3.71054 12.4861 3.83274L12.7081 5.12581C12.7607 5.43284 12.4389 5.6664 12.1628 5.52178L11.0012 4.91159C10.8922 4.85436 10.7615 4.85436 10.6517 4.91159L9.49007 5.52178C9.21475 5.6664 8.89226 5.43284 8.94485 5.12581L9.1668 3.83274C9.18769 3.71054 9.14747 3.5868 9.05853 3.50019L8.12043 2.58452C7.8977 2.3672 8.02067 1.98902 8.32847 1.94417L9.62696 1.75546C9.74915 1.73768 9.8551 1.66111 9.91001 1.54975L10.4908 0.373452C10.6285 0.0942659 11.026 0.0942659 11.1636 0.373452Z" fill="#4DA67A"/>
<path d="M19.1704 3.4672L19.7512 4.6435C19.8062 4.75409 19.9113 4.83143 20.0343 4.84921L21.3328 5.03792C21.6406 5.08277 21.7636 5.46095 21.5408 5.67827L20.6012 6.59394C20.513 6.68055 20.472 6.80429 20.4929 6.92649L20.7149 8.21956C20.7674 8.52659 20.4457 8.76015 20.1696 8.61553L19.008 8.00534C18.899 7.94811 18.7683 7.94811 18.6585 8.00534L17.4969 8.61553C17.2215 8.76015 16.8991 8.52659 16.9516 8.21956L17.1736 6.92649C17.1945 6.80429 17.1543 6.68055 17.0653 6.59394L16.1257 5.67827C15.903 5.46095 16.0259 5.08277 16.3337 5.03792L17.6322 4.84921C17.7544 4.83143 17.8604 4.75486 17.9153 4.6435L18.4961 3.4672C18.6353 3.18802 19.0328 3.18802 19.1704 3.4672Z" fill="#4DA67A"/>
</svg>
