<svg width="27" height="28" viewBox="0 0 27 28" fill="none" xmlns="http://www.w3.org/2000/svg">
<path d="M25.6609 20.8946C24.8422 20.208 20.0403 17.1672 19.2422 17.3068C18.8675 17.3733 18.5808 17.6927 17.8136 18.608C17.4588 19.0585 17.0692 19.4804 16.6483 19.8698C15.8771 19.6835 15.1307 19.4068 14.4244 19.0454C11.6546 17.697 9.41701 15.4587 8.06934 12.6885C7.70797 11.9823 7.43127 11.2358 7.24498 10.4646C7.63442 10.0437 8.05633 9.65409 8.50681 9.29929C9.4211 8.53207 9.74148 8.24729 9.80799 7.87071C9.94756 7.07071 6.904 2.2707 6.22016 1.45196C5.9335 1.11285 5.67308 0.885216 5.33959 0.885216C4.37284 0.885216 0 6.29225 0 6.99296C0 7.0501 0.0936769 12.6792 7.20283 19.912C14.4356 27.0211 20.0647 27.1148 20.1218 27.1148C20.8225 27.1148 26.2296 22.7419 26.2296 21.7752C26.2296 21.4417 26.0019 21.1813 25.6609 20.8946Z" fill="#4DA67A"/>
</svg>
