<svg width="39" height="39" viewBox="0 0 39 39" fill="none" xmlns="http://www.w3.org/2000/svg">
<circle cx="19.3945" cy="19.6797" r="18.3323" fill="white" stroke="#4DA67A" stroke-width="1.30522" stroke-dasharray="5.22 5.22"/>
<path d="M18.9331 27.0494C19.1879 27.3042 19.6011 27.3042 19.856 27.0494L24.0092 22.8962C24.264 22.6413 24.264 22.2281 24.0092 21.9733C23.7543 21.7184 23.3411 21.7184 23.0862 21.9733L19.3945 25.665L15.7028 21.9733C15.448 21.7184 15.0348 21.7184 14.7799 21.9733C14.525 22.2281 14.525 22.6413 14.7799 22.8962L18.9331 27.0494ZM20.0471 10.9089C20.0471 10.5485 19.755 10.2563 19.3945 10.2563C19.0341 10.2563 18.7419 10.5485 18.7419 10.9089L20.0471 10.9089ZM20.0471 26.5879L20.0471 10.9089L18.7419 10.9089L18.7419 26.5879L20.0471 26.5879Z" fill="#4DA67A"/>
</svg>
