<svg width="40" height="40" viewBox="0 0 40 40" fill="none" xmlns="http://www.w3.org/2000/svg">
<g clip-path="url(#clip0_2479_8015)">
<path d="M40 20.0001C40 18.7435 39.8821 17.4858 39.6487 16.2647C39.5434 15.712 39.0593 15.3125 38.4974 15.3125H20.0781C19.4304 15.3125 18.9062 15.8366 18.9062 16.4844V23.5156C18.9062 24.1634 19.4304 24.6875 20.0781 24.6875H29.5287C28.9398 25.8795 28.1284 26.9138 27.1755 27.784L33.7989 34.4074C37.6099 30.7766 40 25.6672 40 20.0001Z" fill="#4DA67A"/>
<path d="M20 9.375C22.2991 9.375 24.4861 10.1052 26.3239 11.4876C26.7886 11.8366 27.4443 11.7943 27.8563 11.3788L32.8574 6.37773C33.0897 6.14539 33.2144 5.82609 33.1996 5.49766C33.1847 5.16922 33.0336 4.8625 32.7818 4.65078C29.2033 1.65141 24.6634 0 20 0C13.1368 0 7.07355 3.48859 3.48926 8.78531L10.368 15.6641C12.0091 11.9675 15.7014 9.375 20 9.375Z" fill="#4DA67A"/>
<path d="M20 40C24.4736 40 28.5932 38.5 31.922 36.001L25.1743 29.2533C23.6319 30.1217 21.8691 30.625 20 30.625C15.7014 30.625 12.0091 28.0325 10.368 24.3359L3.48926 31.2147C7.07355 36.5114 13.1368 40 20 40Z" fill="#4DA67A"/>
<path d="M9.54562 21.6877C9.45586 21.1347 9.375 20.5777 9.375 19.9998C9.375 19.4219 9.45586 18.865 9.54562 18.3119L2.19219 10.9585C0.800937 13.6757 0 16.7433 0 19.9998C0 23.2564 0.800938 26.324 2.19227 29.0411L9.54562 21.6877Z" fill="#4DA67A"/>
</g>
<defs>
<clipPath id="clip0_2479_8015">
<rect width="40" height="40" fill="white"/>
</clipPath>
</defs>
</svg>
