<svg width="22" height="22" viewBox="0 0 22 22" fill="none" xmlns="http://www.w3.org/2000/svg">
<g clip-path="url(#clip0_2485_409)">
<path d="M21.5524 11.4469C21.5524 10.7839 21.4902 10.1203 21.3671 9.47603C21.3115 9.18439 21.0561 8.97363 20.7596 8.97363H11.0412C10.6994 8.97363 10.4229 9.25018 10.4229 9.59194V13.3018C10.4229 13.6436 10.6994 13.9201 11.0412 13.9201H16.0275C15.7168 14.5491 15.2887 15.0948 14.7859 15.5539L18.2806 19.0486C20.2914 17.1329 21.5524 14.437 21.5524 11.4469Z" fill="#4DA67A"/>
<path d="M11.0005 5.84101C12.2136 5.84101 13.3675 6.22626 14.3372 6.95566C14.5823 7.13983 14.9283 7.11749 15.1457 6.89828L17.7844 4.25958C17.907 4.13699 17.9728 3.96852 17.965 3.79523C17.9571 3.62194 17.8774 3.46011 17.7445 3.3484C15.8564 1.76585 13.4611 0.894531 11.0005 0.894531C7.37932 0.894531 4.18023 2.7352 2.28906 5.52988L5.91846 9.15928C6.78434 7.20888 8.73251 5.84101 11.0005 5.84101Z" fill="#4DA67A"/>
<path d="M11.0005 21.9991C13.3609 21.9991 15.5345 21.2077 17.2909 19.8892L13.7306 16.3289C12.9168 16.7871 11.9867 17.0526 11.0005 17.0526C8.73251 17.0526 6.78434 15.6848 5.91846 13.7344L2.28906 17.3638C4.18023 20.1585 7.37932 21.9991 11.0005 21.9991Z" fill="#4DA67A"/>
<path d="M5.48377 12.3378C5.43641 12.046 5.39375 11.7521 5.39375 11.4472C5.39375 11.1423 5.43641 10.8484 5.48377 10.5566L1.60392 6.67676C0.86986 8.11041 0.447266 9.72894 0.447266 11.4472C0.447266 13.1654 0.86986 14.784 1.60396 16.2176L5.48377 12.3378Z" fill="#4DA67A"/>
</g>
<defs>
<clipPath id="clip0_2485_409">
<rect width="21.105" height="21.105" fill="white" transform="translate(0.447266 0.894531)"/>
</clipPath>
</defs>
</svg>
